Coordinates
version=1
nRows=4
nColumns=107
inDegrees=yes

Units are S.I. units (second, meters, Newtons, ...)
If the header above contains a line with 'inDegrees', this indicates whether rotational values are in degrees (yes) or radians (no).

endheader
time	sternoclavicular_r2	sternoclavicular_r3	unrotscap_r3	unrotscap_r2	acromioclavicular_r2	acromioclavicular_r3	acromioclavicular_r1	unrothum_r1	unrothum_r3	unrothum_r2	elv_angle	shoulder_elv	shoulder1_r2	shoulder_rot	elbow_flexion	pro_sup	deviation	flexion	proximal_distal_r1	proximal_distal_r3	cmc_flexion	cmc_abduction	mp_flexion	ip_flexion	mcp2_flexion	mcp2_abduction	pm2_flexion	md2_flexion	mcp3_flexion	mcp3_abduction	pm3_flexion	md3_flexion	mcp4_flexion	mcp4_abduction	pm4_flexion	md4_flexion	mcp5_flexion	mcp5_abduction	pm5_flexion	md5_flexion	bicpt_tx	bicpt_ty	bicpt_tz	bicpt2_tx	bicpt2_ty	bicpt2_tz	ptpt_tx	ptpt_ty	ptpt_tz	FCUpt_tx	FCUpt_ty	FCUpt_tz	EDCpt_tx	EDCpt_ty	EDCpt_tz	APLpt_tx	APLpt_ty	APLpt_tz	FPLpt_tx	FPLpt_ty	FPLpt_tz	FPLpt2_tx	FPLpt2_ty	FPLpt2_tz	PEC1pt2_tx	PEC1pt2_ty	PEC1pt2_tz	PEC1pt3_tx	PEC1pt3_ty	PEC1pt3_tz	PEC2pt2_tx	PEC2pt2_ty	PEC2pt2_tz	PEC2pt3_tx	PEC2pt3_ty	PEC2pt3_tz	PEC3pt2_tx	PEC3pt2_ty	PEC3pt2_tz	PEC3pt3_tx	PEC3pt3_ty	PEC3pt3_tz	DELT2pt2a_tx	DELT2pt2a_ty	DELT2pt2a_tz	DELT2pt2_tx	DELT2pt2_ty	DELT2pt2_tz	LAT1pt2_tx	LAT1pt2_ty	LAT1pt2_tz	LAT1pt3_tx	LAT1pt3_ty	LAT1pt3_tz	LAT2pt2_tx	LAT2pt2_ty	LAT2pt2_tz	LAT2pt3_tx	LAT2pt3_ty	LAT2pt3_tz	LAT3pt2_tx	LAT3pt2_ty	LAT3pt2_tz	LAT3pt3_tx	LAT3pt3_ty	LAT3pt3_tz
      1.00000000	     -0.31512452	      0.13347187	     -0.13347187	      0.31512452	     -0.06380630	      0.51566011	      0.23178567	     -0.23178567	     -0.51566011	      0.06380630	    100.34256107	     74.60853073	     -1.75130807	    -34.31371618	     32.05103453	     85.75318223	      0.35007243	     -0.57997804	      0.37478941	     -0.28998902	     42.77531669	    -20.80607904	     13.02954253	      3.76262702	     81.86413570	     12.32373460	     78.62805537	     84.46070141	     90.19867267	     -1.54712245	     80.54837602	     55.54644264	     90.63290420	    -13.80432808	     89.87838427	     41.69113279	    101.11040125	    -14.31237528	     85.40428735	      5.48815142	      0.00096015	     -0.03127354	     -0.00489171	      0.01426535	     -0.01890682	     -0.00111827	      0.00121381	     -0.06899709	     -0.00695788	      0.01270966	     -0.18224609	      0.00007702	     -0.01029036	      0.00356448	     -0.00074931	      0.00031170	      0.00012468	      0.00062340	      0.00039898	      0.00119693	      0.00067327	     -0.00000579	     -0.00005287	     -0.00006344	      0.00244550	      0.00857999	      0.00596869	     -0.00799970	      0.01931534	     -0.01832055	      0.00244550	      0.00857999	      0.00596869	      0.00053884	      0.01790606	     -0.00940897	      0.00388850	      0.00477122	      0.01582050	      0.00000000	      0.00744226	      0.00000000	     -0.00700492	     -0.03237184	     -0.00613452	      0.02066588	     -0.00090684	     -0.00970748	     -0.00087043	      0.01459012	     -0.00596869	      0.00240405	      0.02105620	     -0.01740867	     -0.00584434	      0.01264201	     -0.00534695	     -0.01218607	      0.02669330	     -0.02988489	     -0.02287997	      0.01413418	     -0.00717071	     -0.01517041	      0.03083822	     -0.03734575
      1.03333333	     -0.31515923	      0.13348658	     -0.13348658	      0.31515923	     -0.06381333	      0.51571692	      0.23181121	     -0.23181121	     -0.51571692	      0.06381333	    100.34856740	     74.61674997	     -1.75141290	    -34.31223668	     32.05906285	     85.75355388	      0.35008859	     -0.57999767	      0.37480163	     -0.28999883	     42.77515730	    -20.80575745	     13.02941979	      3.76259738	     81.86413606	     12.32375907	     78.62811978	     84.46079009	     90.19862469	     -1.54700361	     80.54848100	     55.54650462	     90.63287190	    -13.80431437	     89.87841494	     41.69109614	    101.11031094	    -14.31241408	     85.40439298	      5.48812980	      0.00096041	     -0.03127446	     -0.00489186	      0.01426531	     -0.01890900	     -0.00111820	      0.00121378	     -0.06899710	     -0.00695791	      0.01270970	     -0.18224607	      0.00007703	     -0.01029040	      0.00356450	     -0.00074932	      0.00031170	      0.00012468	      0.00062340	      0.00039898	      0.00119694	      0.00067328	     -0.00000579	     -0.00005287	     -0.00006345	      0.00244577	      0.00858093	      0.00596935	     -0.00800058	      0.01931746	     -0.01832257	      0.00244577	      0.00858093	      0.00596935	      0.00053890	      0.01790804	     -0.00941001	      0.00388882	      0.00477175	      0.01582129	      0.00000000	      0.00744391	      0.00000000	     -0.00700569	     -0.03237541	     -0.00613590	      0.02066526	     -0.00090679	     -0.00970672	     -0.00087053	      0.01459173	     -0.00596935	      0.00240432	      0.02105852	     -0.01741059	     -0.00584498	      0.01264340	     -0.00534754	     -0.01218741	      0.02669624	     -0.02988818	     -0.02288249	      0.01413574	     -0.00717150	     -0.01517209	      0.03084162	     -0.03734986
      1.06666667	     -0.31544549	      0.13360782	     -0.13360782	      0.31544549	     -0.06387130	      0.51618534	      0.23202176	     -0.23202176	     -0.51618534	      0.06387130	    100.32876809	     74.68452436	     -1.75106734	    -34.05012826	     31.88041934	     85.41977795	      0.35084931	     -0.60315789	      0.37539765	     -0.30157895	     42.75954667	    -20.76262570	     12.46763022	      4.43660282	     82.21905049	     12.31067604	     78.67240152	     84.98674980	     90.41883848	     -1.48144419	     80.47132655	     55.91496342	     90.85856655	    -13.80194265	     89.89451509	     41.66850757	    101.30931253	    -14.31261246	     85.06681309	      5.50566101	      0.00095451	     -0.03125398	     -0.00488856	      0.01429951	     -0.01886047	     -0.00117517	      0.00123844	     -0.06898116	     -0.00693102	      0.01267140	     -0.18225734	      0.00006794	     -0.01025035	      0.00354622	     -0.00073868	      0.00031246	      0.00012498	      0.00062491	      0.00039995	      0.00119984	      0.00067491	     -0.00000582	     -0.00005322	     -0.00006387	      0.00244799	      0.00858873	      0.00597477	     -0.00800785	      0.01933501	     -0.01833922	      0.00244799	      0.00858873	      0.00597477	      0.00053939	      0.01792430	     -0.00941856	      0.00389142	      0.00477608	      0.01582782	      0.00000000	      0.00745753	      0.00000000	     -0.00701205	     -0.03240481	     -0.00614720	      0.02056380	     -0.00089756	     -0.00956655	     -0.00087132	      0.01460499	     -0.00597477	      0.00240650	      0.02107765	     -0.01742640	     -0.00585029	      0.01265489	     -0.00535240	     -0.01219848	      0.02672049	     -0.02991533	     -0.02290327	      0.01414858	     -0.00717802	     -0.01518587	      0.03086963	     -0.03738379
      1.10000000	     -0.31536201	      0.13357246	     -0.13357246	      0.31536201	     -0.06385439	      0.51604874	      0.23196036	     -0.23196036	     -0.51604874	      0.06385439	    100.25263624	     74.66475976	     -1.74973859	    -33.92117189	     32.06864351	     85.54604681	      0.35684786	     -0.58744457	      0.38006440	     -0.29372229	     42.72212504	    -20.61127446	     12.53418534	      3.78278679	     82.30267140	     12.33872493	     78.50101138	     85.09398526	     90.26318709	     -1.36987012	     80.54845347	     56.08744216	     90.53466210	    -13.79011241	     89.84168622	     41.35348098	    100.95322589	    -14.31201047	     85.25006383	      5.48614881	      0.00096073	     -0.03127556	     -0.00489204	      0.01428660	     -0.01891160	     -0.00115364	      0.00122911	     -0.06898719	     -0.00694119	      0.01268588	     -0.18225308	      0.00007137	     -0.01026550	      0.00355313	     -0.00074270	      0.00031204	      0.00012482	      0.00062409	      0.00039942	      0.00119825	      0.00067402	     -0.00000590	     -0.00005406	     -0.00006488	      0.00244735	      0.00858645	      0.00597319	     -0.00800573	      0.01932989	     -0.01833436	      0.00244735	      0.00858645	      0.00597319	      0.00053925	      0.01791956	     -0.00941606	      0.00389066	      0.00477482	      0.01582591	      0.00000000	      0.00745355	      0.00000000	     -0.00701020	     -0.03239624	     -0.00614391	      0.02051350	     -0.00089302	     -0.00949788	     -0.00087109	      0.01460112	     -0.00597319	      0.00240587	      0.02107207	     -0.01742179	     -0.00584874	      0.01265154	     -0.00535098	     -0.01219525	      0.02671341	     -0.02990741	     -0.02289721	      0.01414484	     -0.00717612	     -0.01518185	      0.03086146	     -0.03737389
